<svg
          xmlns="http://www.w3.org/2000/svg"
          viewBox="0 0 457 292"
          fill="none"
        >
          <path
            d="M37.9639 136.041C44.6024 136.041 49.9132 134.341 53.8963 130.942C57.9623 127.46 60.5348 123.232 61.6135 118.258L64.103 118.755C62.9412 125.554 60.2028 131.357 55.8878 136.165C51.6558 140.974 44.6439 143.378 34.8521 143.378C23.7326 143.378 15.1441 139.772 9.08644 132.559C3.02881 125.263 0 115.108 0 102.092C0 94.1329 1.41068 87.1275 4.23204 81.0756C7.13638 75.0236 11.161 70.3395 16.3058 67.0233C21.5336 63.7071 27.6742 62.0491 34.7276 62.0491C45.1003 62.0491 52.4856 64.9922 56.8836 70.8784C61.2816 76.7645 63.4806 84.2259 63.4806 93.2624V95.7496L50.909 94.3816C51.9047 90.8168 52.4026 87.3763 52.4026 84.0601C52.4026 78.6713 50.8675 74.5261 47.7972 71.6245C44.8098 68.6399 40.7438 67.1477 35.5989 67.1477C28.0476 67.1477 21.907 70.0079 17.1771 75.7282C12.5302 81.3657 10.2067 90.1535 10.2067 102.092C10.2067 109.304 11.3269 115.481 13.5674 120.621C15.8909 125.678 19.1272 129.533 23.2762 132.186C27.5083 134.756 32.4042 136.041 37.9639 136.041Z"
            fill="#FEC6FF"
          />
          <path
            d="M112.839 142.507V140.145C115.412 140.145 117.32 140.062 118.565 139.896C119.81 139.647 120.557 139.15 120.806 138.404C121.055 137.658 120.557 136.538 119.312 135.046L85.2068 92.0189V82.8165H88.0696C88.0696 86.9617 89.3973 90.2364 92.0527 92.6406C94.7911 95.0449 98.1103 96.247 102.01 96.247C106.657 96.247 110.184 94.962 112.591 92.3919C115.08 89.8219 116.325 86.6301 116.325 82.8165C116.325 78.3397 115.08 74.9407 112.591 72.6193C110.184 70.2151 106.035 69.013 100.143 69.013H86.8249V63.2926H103.131C110.516 63.2926 116.283 64.9507 120.432 68.2669C124.581 71.5001 126.656 76.0599 126.656 81.946C126.656 87.7493 124.623 92.309 120.557 95.6252C116.491 98.9414 111.18 100.599 104.624 100.599C102.052 100.599 99.77 100.226 97.7784 99.4802L97.5295 99.9777C100.434 101.719 103.297 103.833 106.118 106.32C109.022 108.807 111.678 111.46 114.084 114.279L136.116 140.642V142.507H112.839ZM70.2701 142.507V140.145C72.6766 140.145 74.5852 139.647 75.9958 138.652C77.4065 137.658 78.1119 135.792 78.1119 133.056V72.6193C78.1119 69.9664 77.4065 68.1425 75.9958 67.1477C74.5852 66.0699 72.6766 65.531 70.2701 65.531V63.2926H88.0696V133.056C88.0696 135.792 88.7749 137.658 90.1856 138.652C91.5963 139.647 93.5049 140.145 95.9113 140.145V142.507H70.2701Z"
            fill="#FEC6FF"
          />
          <path
            d="M142.174 71.7489C141.012 69.3446 139.353 67.728 137.195 66.899C135.038 65.987 132.673 65.531 130.1 65.531V63.2926H148.522L170.305 107.936H165.45L185.241 71.5001C186.237 69.842 186.486 68.5985 185.988 67.7695C185.573 66.9404 184.66 66.3601 183.25 66.0285C181.839 65.6969 179.889 65.531 177.399 65.531V63.2926H205.157V65.531C202.501 65.531 200.095 65.9456 197.937 66.7746C195.78 67.6037 194.037 69.1788 192.71 71.5001L171.549 109.926V133.056C171.549 135.792 172.296 137.658 173.79 138.652C175.366 139.647 177.524 140.145 180.262 140.145V142.507H152.754V140.145C155.492 140.145 157.65 139.647 159.227 138.652C160.803 137.658 161.592 135.792 161.592 133.056V110.548L142.174 71.7489Z"
            fill="#FEC6FF"
          />
          <path
            d="M241.724 98.8585C247.865 101.014 252.304 103.791 255.043 107.19C257.864 110.506 259.275 114.942 259.275 120.496C259.275 128.455 256.744 134.258 251.682 137.906C246.62 141.554 239.816 143.378 231.269 143.378C224.298 143.378 218.365 142.176 213.469 139.772C208.656 137.367 204.964 134.341 202.391 130.694V106.195H204.383C204.549 112.579 205.793 118.175 208.117 122.984C210.523 127.792 213.76 131.523 217.826 134.176C221.892 136.829 226.58 138.155 231.891 138.155C237.534 138.155 241.89 136.787 244.96 134.051C248.031 131.315 249.566 127.709 249.566 123.232C249.566 119.667 248.612 116.683 246.703 114.279C244.877 111.791 241.807 109.802 237.492 108.31L219.942 102.092C214.631 100.185 210.731 97.7393 208.241 94.7547C205.752 91.7702 204.507 87.7908 204.507 82.8165C204.507 79.0859 205.461 75.6868 207.37 72.6193C209.362 69.469 212.39 66.9404 216.456 65.0336C220.605 63.0439 225.667 62.0491 231.642 62.0491C236.455 62.0491 240.936 62.7538 245.085 64.1631C249.317 65.5725 252.927 67.6451 255.914 70.3809L256.91 91.7702H255.043C253.881 83.3969 251.35 77.1791 247.45 73.1168C243.55 69.0545 238.322 67.0233 231.766 67.0233C225.875 67.0233 221.435 68.3083 218.448 70.8784C215.461 73.4484 213.967 76.7645 213.967 80.8268C213.967 83.3969 214.714 85.6353 216.207 87.5421C217.701 89.4489 220.149 91.024 223.551 92.2676L241.724 98.8585Z"
            fill="#FEC6FF"
          />
          <path
            d="M300.831 133.056C300.831 135.792 301.578 137.658 303.071 138.652C304.648 139.647 306.805 140.145 309.544 140.145V142.507H282.16V140.145C284.898 140.145 287.014 139.647 288.508 138.652C290.085 137.658 290.873 135.792 290.873 133.056V63.2926H300.831V133.056ZM263.365 62.0491C264.444 62.5465 265.647 62.8781 266.974 63.0439C268.385 63.2097 270.211 63.2926 272.451 63.2926H319.253C321.493 63.2926 323.277 63.2097 324.605 63.0439C326.016 62.8781 327.26 62.5465 328.339 62.0491L328.837 67.272L330.206 80.3294L327.841 80.5781C327.509 77.0132 326.721 74.1945 325.476 72.1219C324.314 70.0493 322.364 69.013 319.626 69.013H272.078C269.339 69.013 267.348 70.0493 266.103 72.1219C264.941 74.1116 264.153 76.8889 263.738 80.4538L261.498 80.2051L262.867 67.272L263.365 62.0491Z"
            fill="#FEC6FF"
          />
          <path
            d="M341.296 133.429C340.549 136.082 340.922 137.865 342.416 138.777C343.993 139.689 346.524 140.145 350.009 140.145V142.507H323.745V140.145C326.318 140.145 328.517 139.689 330.342 138.777C332.251 137.782 333.578 135.999 334.325 133.429L352.249 72.2463C352.996 69.6763 352.457 67.9353 350.631 67.0233C348.806 66.0285 345.901 65.531 341.918 65.531V63.2926H367.684L388.222 133.429C388.968 135.999 390.255 137.782 392.08 138.777C393.989 139.689 396.188 140.145 398.677 140.145V142.507H369.426V140.145C372.995 140.145 375.526 139.689 377.019 138.777C378.596 137.865 379.011 136.082 378.264 133.429L358.348 65.0336H361.336L341.296 133.429ZM380.38 112.786V118.507H342.914V112.786H380.38Z"
            fill="#FEC6FF"
          />
          <path
            d="M444.926 136.663C447.582 136.663 449.656 135.668 451.15 133.678C452.726 131.688 453.93 128.994 454.76 125.595L457 126.092L453.888 138.404L452.768 142.507H418.787V136.663H444.926ZM402.357 142.507V140.145C404.763 140.145 406.672 139.647 408.083 138.652C409.493 137.658 410.199 135.792 410.199 133.056V72.6193C410.199 69.9664 409.493 68.1425 408.083 67.1477C406.672 66.0699 404.763 65.531 402.357 65.531V63.2926H427.998V65.531C425.592 65.531 423.683 66.0699 422.272 67.1477C420.862 68.1425 420.156 69.9664 420.156 72.6193V142.507H402.357Z"
            fill="#FEC6FF"
          />
          <path
            d="M104.167 33.8194C108.691 33.8194 113.377 23.4879 113.377 17.1922C113.377 14.4479 112.448 12.5108 110.226 12.5108C106.106 12.5108 102.067 21.3086 101.824 21.3086C101.703 21.3086 101.703 21.1472 101.824 20.6226L105.702 2.17929C106.066 0.484288 105.015 0 103.763 0C101.582 0 99.7641 1.00893 99.6429 1.81608C99.4409 3.06715 102.996 2.17929 102.511 4.1568C102.107 5.81145 97.7847 6.41681 89.1806 6.41681C85.4643 6.41681 81.748 6.37645 80.5765 6.13431C79.9706 6.01324 79.7282 5.69038 79.3243 5.16573C78.9203 5.04466 78.4356 5.16573 78.1528 5.32716C77.7893 7.34503 77.5469 10.17 77.2641 12.5511C77.7489 12.6722 78.274 12.6722 78.8395 12.5511L79.2839 11.3404C80.2937 8.5961 81.4248 8.43467 82.7578 8.3136C84.0101 8.19253 85.5451 8.27324 86.1914 8.35396C87.3224 8.47503 87.5648 8.99968 87.282 11.3C86.9993 13.56 85.5047 24.3758 85.0199 27.7658C84.7776 29.5819 84.4948 30.3487 83.6869 30.7119C83.081 30.9944 81.0612 31.5998 80.6573 31.7208C80.2937 32.0437 80.3341 32.8105 80.6573 33.093C83.8485 33.0123 88.9383 33.0123 92.8566 33.093C93.2201 32.8105 93.3009 32.0437 93.1393 31.7208C92.8565 31.6401 90.5136 30.954 89.9481 30.6312C89.1806 30.1872 89.0594 29.6222 89.1402 27.7658C89.2614 24.2951 90.7964 12.6318 91.2407 10.2911C91.5639 8.5961 91.6851 8.51539 93.4625 8.47503C98.1079 8.35396 100.41 8.15217 102.067 7.26431C101.016 11.6633 99.8045 15.4165 98.5522 21.6315C98.1079 23.7704 97.0172 28.6537 97.0172 31.7208C97.0172 33.093 97.6231 33.4965 98.2694 33.4965C99.3601 33.4965 99.6833 32.528 100.612 29.3801C102.309 23.609 106.268 15.2954 108.812 15.2954C109.944 15.2954 110.428 16.5465 110.428 18.3222C110.428 21.7526 108.772 27.1605 106.672 28.4922C103.965 30.2276 102.269 30.6312 102.269 32.0437C102.269 32.7298 102.753 33.8194 104.167 33.8194Z"
            fill="#FEC6FF"
          />
          <path
            d="M120.552 33.4965C124.308 33.4965 127.176 29.4205 127.176 28.129C127.176 27.9272 127.096 27.8062 126.894 27.8062C126.005 27.8062 123.622 30.3083 121.44 30.3083C119.825 30.3083 119.097 28.9765 119.097 26.1112C119.097 25.5462 119.138 24.9812 119.178 24.4162C125.197 23.044 128.711 19.8558 128.711 15.7797C128.711 13.7215 127.5 12.5915 125.359 12.5915C120.511 12.5915 115.906 19.6136 115.906 27.0797C115.906 31.1155 117.643 33.4965 120.552 33.4965ZM119.421 23.0037C120.228 18.524 122.652 14.3672 124.833 14.3672C125.439 14.3672 125.803 14.8918 125.803 15.8201C125.803 18.6451 122.975 21.7929 119.421 23.0037Z"
            fill="#FEC6FF"
          />
          <path
            d="M333.669 292C334.638 292 339.93 291.798 342.879 289.498L343.888 283.283C344.171 281.426 344.454 281.063 345.06 280.74C345.747 280.377 346.958 280.175 347.403 280.054C347.564 279.731 347.645 279.005 347.403 278.722C344.454 278.884 339.889 278.844 336.092 278.722C335.85 279.005 335.81 279.772 335.971 280.095C336.133 280.135 338.637 280.498 339.203 280.7C340.172 281.063 340.415 281.588 340.293 283.283C340.213 284.453 339.849 287.036 339.485 288.368C337.748 289.78 335.688 290.103 333.951 290.103C328.175 290.103 323.974 285.987 324.216 278.48C324.499 270.974 329.023 266.05 335.163 266.05C338.597 266.05 341.95 267.665 343.283 271.66C344.01 271.7 344.454 271.7 344.696 271.539C344.979 269.804 345.1 267.866 345.141 266.454C342.475 265.041 338.637 264.355 335.486 264.355C326.438 264.355 320.702 269.965 320.136 278.359C319.571 286.713 325.064 292 333.669 292Z"
            fill="#FEC6FF"
          />
          <path
            d="M352.331 292C355.199 292 358.027 287.762 358.633 286.632H358.673C358.552 290.587 359.279 292 360.774 292C362.874 292 364.975 288.206 364.975 287.48C364.975 287.197 364.853 287.117 364.651 287.117C364.126 287.117 362.834 287.803 362.228 287.803C361.783 287.803 361.662 287.44 361.662 286.794C361.662 283.807 363.965 275.332 365.096 271.66C365.096 271.337 364.773 271.135 364.288 271.135C363.722 271.135 362.955 271.377 362.147 272.104C361.299 271.66 360.41 271.418 359.521 271.418C353.583 271.418 349.665 281.548 349.665 287.803C349.665 291.193 350.998 292 352.331 292ZM353.987 288.61C353.139 288.61 352.856 287.561 352.856 286.189C352.856 281.265 356.169 273.395 358.835 273.395C359.562 273.395 360.491 274.162 361.056 275.171C360.45 277.471 359.683 280.7 359.117 283.242C357.542 286.592 355.159 288.61 353.987 288.61Z"
            fill="#FEC6FF"
          />
          <path
            d="M369.628 292C370.719 292 371.082 290.951 371.607 289.175C372.334 286.713 373.061 282.718 374.233 279.61C375.566 276.099 377.586 273.92 379.04 273.92C379.888 273.92 380.171 274.646 380.171 275.655C380.171 276.584 379.929 277.754 379.646 278.844C378.636 282.839 376.939 287.44 376.939 289.942C376.939 291.112 377.384 292 378.232 292C379.525 292 379.929 289.619 380.413 287.803C381.262 284.534 381.827 281.426 382.635 279.247C383.766 276.099 385.665 273.92 387.078 273.92C387.846 273.92 388.129 274.485 388.129 275.453C388.129 276.503 387.806 277.956 387.442 279.57C386.513 283.888 385.099 288.489 385.099 290.265C385.099 291.475 385.543 292 386.432 292C387.886 292 389.098 290.265 390.068 288.327C390.593 287.319 391.037 286.148 390.27 286.148C390.189 286.148 390.027 286.148 388.533 286.673C389.341 283.565 391.037 277.592 391.037 274.687C391.037 272.467 390.229 271.135 388.533 271.135C386.351 271.135 384.291 273.718 382.797 276.422C382.958 275.776 382.999 275.252 382.999 274.687C382.999 272.467 382.191 271.135 380.494 271.135C377.949 271.135 375.606 274.122 374.314 276.785L374.556 273.516C374.718 271.377 374.273 271.135 373.587 271.135C371.688 271.135 368.86 273.678 368.86 275.131C368.86 275.696 369.345 275.696 370.113 275.534L372.658 275.05C370.88 278.157 369.668 283 369.224 284.937C368.82 286.673 368.376 288.61 368.376 289.982C368.376 291.193 368.699 292 369.628 292Z"
            fill="#FEC6FF"
          />
          <path
            d="M398.849 292C402.606 292 405.474 287.924 405.474 286.632C405.474 286.431 405.393 286.31 405.191 286.31C404.302 286.31 401.919 288.812 399.738 288.812C398.122 288.812 397.395 287.48 397.395 284.615C397.395 284.05 397.435 283.485 397.476 282.92C403.495 281.547 407.009 278.359 407.009 274.283C407.009 272.225 405.797 271.095 403.656 271.095C398.809 271.095 394.204 278.117 394.204 285.583C394.204 289.619 395.941 292 398.849 292ZM397.718 281.507C398.526 277.027 400.95 272.871 403.131 272.871C403.737 272.871 404.1 273.395 404.1 274.324C404.1 277.149 401.273 280.296 397.718 281.507Z"
            fill="#FEC6FF"
          />
          <path
            d="M2.49406 193.89C2.49406 201.401 3.94389 208.161 6.84356 214.169C9.79693 220.178 13.9316 224.899 19.3551 228.332C24.7786 231.712 31.1686 233.429 38.4177 233.429C54.9029 233.59 68.1125 223.236 68.8643 208.375H58.9839C57.8026 217.71 50.3923 224.469 39.0084 224.469H37.8808C21.8789 224.684 12.267 210.897 12.4281 193.89C12.267 176.884 21.8789 163.097 37.8808 163.311H39.0084C50.3923 163.311 57.8026 170.071 58.9839 179.459H68.8643C68.1125 164.599 54.9029 154.137 38.4177 154.352C31.1686 154.352 24.7786 156.069 19.3551 159.502C13.9316 162.882 9.79693 167.603 6.84356 173.611C3.94389 179.62 2.49406 186.38 2.49406 193.89Z"
            fill="#FEC6FF"
          />
          <path
            d="M132.26 232.356H142.623L112.016 155.425H99.3967L68.5743 232.356H78.6694L86.6704 212.077H124.259L132.26 232.356ZM90.2144 203.118L105.465 164.545L120.715 203.118H90.2144Z"
            fill="#FEC6FF"
          />
          <path
            d="M141.42 207.839C141.743 224.416 153.126 233.429 171.491 233.429C188.298 233.429 199.414 224.952 199.414 211.594C199.414 199.899 192.54 192.656 178.74 189.92L166.443 187.506C159.302 186.058 155.167 182.249 155.167 176.187C155.167 168.891 161.987 163.311 171.813 163.311H172.941C182.714 163.311 190.124 169.212 190.661 178.332H200.541C200.004 163.687 189.211 154.352 172.404 154.352C156.295 154.137 145.072 164.33 145.287 176.348C145.287 187.935 151.945 194.856 164.349 197.431L176.7 199.952C185.345 201.723 189.48 205.532 189.48 212.023C189.48 219.051 183.412 224.469 172.833 224.469H171.706C159.624 224.469 151.301 218.515 151.301 207.839H141.42Z"
            fill="#FEC6FF"
          />
          <path
            d="M227.261 232.356H237.142V164.438H264.85V155.425H199.553V164.438H227.261V232.356Z"
            fill="#FEC6FF"
          />
          <path
            d="M271.272 232.356H326.58V223.396H281.152V155.425H271.272V232.356Z"
            fill="#FEC6FF"
          />
          <path
            d="M333.11 232.356H389.546V223.396H342.99V197.27H381.814V188.311H342.99V164.438H388.418V155.425H333.11V232.356Z"
            fill="#FEC6FF"
          />
          <path
            d="M392.961 207.839C393.283 224.416 404.667 233.429 423.032 233.429C439.839 233.429 450.955 224.952 450.955 211.594C450.955 199.899 444.081 192.656 430.281 189.92L417.984 187.506C410.843 186.058 406.708 182.249 406.708 176.187C406.708 168.891 413.527 163.311 423.354 163.311H424.482C434.255 163.311 441.665 169.212 442.202 178.332H452.082C451.545 163.687 440.752 154.352 423.945 154.352C407.836 154.137 396.613 164.33 396.827 176.348C396.827 187.935 403.486 194.856 415.89 197.431L428.241 199.952C436.886 201.723 441.021 205.532 441.021 212.023C441.021 219.051 434.953 224.469 424.374 224.469H423.247C411.165 224.469 402.842 218.515 402.842 207.839H392.961Z"
            fill="#FEC6FF"
          />
        </svg>