<svg width="95" height="95" viewBox="0 0 95 95" fill="none" xmlns="http://www.w3.org/2000/svg">
<path d="M76.3776 20.9818C71.0933 18.5176 65.3719 16.7291 59.4121 15.6957C59.3598 15.6941 59.3078 15.7039 59.2598 15.7245C59.2117 15.7451 59.1688 15.776 59.1339 15.815C58.4188 17.1266 57.5844 18.8356 57.0282 20.1472C50.7068 19.1933 44.2782 19.1933 37.9568 20.1472C37.4006 18.7959 36.5662 17.1266 35.8113 15.815C35.7716 15.7355 35.6524 15.6957 35.5332 15.6957C29.5734 16.7291 23.8917 18.5176 18.5676 20.9818C18.5279 20.9818 18.4882 21.0216 18.4484 21.0613C7.64136 37.2375 4.66146 52.9766 6.13154 68.5566C6.13154 68.6361 6.17127 68.7156 6.25074 68.7554C13.4025 74.0017 20.2761 77.1813 27.0703 79.2878C27.1895 79.3275 27.3087 79.2878 27.3484 79.2083C28.9377 77.0223 30.368 74.7171 31.5997 72.2927C31.6792 72.1337 31.5997 71.9747 31.4408 71.935C29.1761 71.0606 27.0305 70.0272 24.9248 68.8348C24.7658 68.7554 24.7658 68.5169 24.885 68.3976C25.3221 68.0797 25.7591 67.722 26.1962 67.404C26.2756 67.3245 26.3948 67.3245 26.4743 67.3643C40.1421 73.6042 54.8826 73.6042 68.3915 67.3643C68.471 67.3245 68.5902 67.3245 68.6696 67.404C69.1067 67.7617 69.5437 68.0797 69.9808 68.4374C70.1397 68.5566 70.1397 68.7951 69.941 68.8746C67.875 70.1067 65.6897 71.1003 63.425 71.9747C63.2661 72.0144 63.2263 72.2132 63.2661 72.3324C64.5375 74.7569 65.9678 77.0621 67.5174 79.248C67.6366 79.2878 67.7558 79.3275 67.875 79.2878C74.7089 77.1813 81.5825 74.0017 88.7342 68.7554C88.8137 68.7156 88.8534 68.6361 88.8534 68.5566C90.6016 50.5521 85.953 34.9323 76.5365 21.0613C76.4968 21.0216 76.4571 20.9818 76.3776 20.9818ZM33.6658 59.0576C29.5734 59.0576 26.1564 55.2818 26.1564 50.6316C26.1564 45.9814 29.4939 42.2057 33.6658 42.2057C37.8774 42.2057 41.2148 46.0212 41.1751 50.6316C41.1751 55.2818 37.8376 59.0576 33.6658 59.0576ZM61.3589 59.0576C57.2665 59.0576 53.8496 55.2818 53.8496 50.6316C53.8496 45.9814 57.1871 42.2057 61.3589 42.2057C65.5705 42.2057 68.908 46.0212 68.8683 50.6316C68.8683 55.2818 65.5705 59.0576 61.3589 59.0576Z" fill="#FCFCFC"/>
</svg>
