<svg width="20" height="20" viewBox="0 0 20 20" fill="none" xmlns="http://www.w3.org/2000/svg">
<path d="M16.0797 4.41722C14.9672 3.89844 13.7627 3.52191 12.508 3.30436C12.497 3.30401 12.486 3.30607 12.4759 3.31041C12.4658 3.31475 12.4568 3.32125 12.4494 3.32946C12.2989 3.60559 12.1232 3.96538 12.0061 4.24151C10.6753 4.04069 9.3219 4.04069 7.99109 4.24151C7.87399 3.95701 7.69833 3.60559 7.5394 3.32946C7.53104 3.31273 7.50594 3.30436 7.48085 3.30436C6.22616 3.52191 5.03002 3.89844 3.90916 4.41722C3.90079 4.41722 3.89243 4.42559 3.88406 4.43396C1.60889 7.83948 0.98154 11.153 1.29103 14.433C1.29103 14.4497 1.2994 14.4664 1.31612 14.4748C2.82176 15.5793 4.26884 16.2487 5.69919 16.6922C5.72428 16.7005 5.74937 16.6922 5.75774 16.6754C6.09232 16.2152 6.39345 15.7299 6.65275 15.2195C6.66948 15.186 6.65275 15.1526 6.61929 15.1442C6.14251 14.9601 5.69082 14.7426 5.2475 14.4915C5.21404 14.4748 5.21404 14.4246 5.23913 14.3995C5.33114 14.3326 5.42315 14.2573 5.51516 14.1903C5.53189 14.1736 5.55699 14.1736 5.57372 14.1819C8.45115 15.4956 11.5544 15.4956 14.3984 14.1819C14.4151 14.1736 14.4402 14.1736 14.4569 14.1903C14.549 14.2656 14.641 14.3326 14.733 14.4079C14.7664 14.433 14.7664 14.4832 14.7246 14.4999C14.2896 14.7593 13.8296 14.9685 13.3528 15.1526C13.3194 15.1609 13.311 15.2028 13.3194 15.2279C13.587 15.7383 13.8881 16.2236 14.2144 16.6838C14.2395 16.6922 14.2646 16.7005 14.2896 16.6922C15.7284 16.2487 17.1754 15.5793 18.6811 14.4748C18.6978 14.4664 18.7062 14.4497 18.7062 14.433C19.0742 10.6425 18.0955 7.35417 16.1131 4.43396C16.1048 4.42559 16.0964 4.41722 16.0797 4.41722ZM7.08771 12.4332C6.22616 12.4332 5.5068 11.6383 5.5068 10.6593C5.5068 9.6803 6.20943 8.8854 7.08771 8.8854C7.97436 8.8854 8.67699 9.68867 8.66862 10.6593C8.66862 11.6383 7.966 12.4332 7.08771 12.4332ZM12.9179 12.4332C12.0563 12.4332 11.3369 11.6383 11.3369 10.6593C11.3369 9.6803 12.0396 8.8854 12.9179 8.8854C13.8045 8.8854 14.5071 9.68867 14.4988 10.6593C14.4988 11.6383 13.8045 12.4332 12.9179 12.4332Z" fill="#FCFCFC"/>
</svg>
