<svg width="20" height="20" viewBox="0 0 20 20" fill="none" xmlns="http://www.w3.org/2000/svg">
<path d="M18.6101 4.96173C17.9699 5.25176 17.2799 5.44235 16.565 5.5335C17.2966 5.09432 17.8619 4.39825 18.1279 3.56132C17.4379 3.97565 16.6731 4.26567 15.8667 4.4314C15.2099 3.71877 14.2872 3.30444 13.2397 3.30444C11.2861 3.30444 9.68994 4.89544 9.68994 6.85933C9.68994 7.14107 9.7232 7.41452 9.78139 7.6714C6.82188 7.52224 4.18658 6.10526 2.43248 3.95907C2.12489 4.48112 1.95032 5.09432 1.95032 5.74066C1.95032 6.97534 2.57381 8.06915 3.53814 8.69063C2.9479 8.69063 2.39923 8.5249 1.91706 8.27631V8.30117C1.91706 10.0247 3.14742 11.4666 4.77682 11.7898C4.25369 11.9325 3.70449 11.9523 3.17236 11.8478C3.39816 12.5542 3.84036 13.1723 4.43682 13.6152C5.03328 14.0581 5.754 14.3036 6.49766 14.3171C5.23706 15.3119 3.67448 15.8496 2.0667 15.8418C1.78405 15.8418 1.5014 15.8253 1.21875 15.7921C2.79827 16.8031 4.67706 17.3914 6.68886 17.3914C13.2397 17.3914 16.8393 11.9721 16.8393 7.27365C16.8393 7.11621 16.8393 6.96705 16.831 6.80961C17.5293 6.31242 18.1279 5.68265 18.6101 4.96173Z" fill="#FCFCFC"/>
</svg>
