<svg width="95" height="95" viewBox="0 0 95 95" fill="none" xmlns="http://www.w3.org/2000/svg">
<path d="M27.3427 19.4624C27.3416 21.5558 26.5096 23.5631 25.0295 25.0427C23.5495 26.5222 21.5427 27.3528 19.4506 27.3517C17.3585 27.3507 15.3526 26.5181 13.874 25.0371C12.3954 23.5561 11.5654 21.5479 11.5664 19.4545C11.5675 17.3611 12.3995 15.3538 13.8796 13.8743C15.3596 12.3947 17.3664 11.5641 19.4585 11.5652C21.5505 11.5662 23.5565 12.3988 25.0351 13.8799C26.5137 15.3609 27.3437 17.369 27.3427 19.4624ZM27.5793 33.1967H11.8031V82.6087H27.5793V33.1967ZM52.5058 33.1967H36.8084V82.6087H52.3481V56.6792C52.3481 42.2345 71.1613 40.8927 71.1613 56.6792V82.6087H86.7403V51.3118C86.7403 26.961 58.8952 27.8688 52.3481 39.8271L52.5058 33.1967Z" fill="#FCFCFC"/>
</svg>
