<svg width="20" height="20" viewBox="0 0 20 20" fill="none" xmlns="http://www.w3.org/2000/svg">
<path d="M5.75491 4.09739C5.75469 4.53811 5.57952 4.96069 5.26793 5.27218C4.95634 5.58366 4.53386 5.75852 4.09342 5.7583C3.65299 5.75808 3.23068 5.58279 2.9194 5.271C2.60812 4.95921 2.43337 4.53645 2.43359 4.09573C2.43381 3.65501 2.60899 3.23242 2.92058 2.92094C3.23217 2.60946 3.65465 2.43459 4.09508 2.43481C4.53552 2.43504 4.95783 2.61032 5.2691 2.92212C5.58038 3.23391 5.75513 3.65667 5.75491 4.09739ZM5.80473 6.98882H2.48341V17.3913H5.80473V6.98882ZM11.0524 6.98882H7.74771V17.3913H11.0192V11.9325C11.0192 8.89152 14.9799 8.60902 14.9799 11.9325V17.3913H18.2597V10.8025C18.2597 5.67604 12.3976 5.86715 11.0192 8.38469L11.0524 6.98882Z" fill="#FCFCFC"/>
</svg>
