<svg width="95" height="95" viewBox="0 0 95 95" fill="none" xmlns="http://www.w3.org/2000/svg">
<path d="M88.3899 23.5677C85.3494 24.9453 82.0719 25.8506 78.6759 26.2836C82.1509 24.1974 84.836 20.8912 86.0997 16.9157C82.8222 18.8838 79.1893 20.2614 75.3589 21.0486C72.2394 17.6636 67.8562 15.6956 62.8808 15.6956C53.6011 15.6956 46.0194 23.2528 46.0194 32.5813C46.0194 33.9195 46.1774 35.2184 46.4538 36.4386C32.3961 35.7301 19.8784 28.9994 11.5465 18.805C10.0854 21.2848 9.25619 24.1974 9.25619 27.2676C9.25619 33.1323 12.2178 38.3279 16.7984 41.28C13.9947 41.28 11.3885 40.4927 9.09823 39.3119V39.43C9.09823 47.617 14.9424 54.4658 22.6821 56.0008C20.1972 56.6786 17.5885 56.773 15.0609 56.2763C16.1334 59.6318 18.2339 62.5678 21.0671 64.6717C23.9003 66.7756 27.3237 67.9416 30.8561 68.0058C24.8682 72.7308 17.446 75.2848 9.80902 75.2482C8.46643 75.2482 7.12384 75.1694 5.78125 75.012C13.284 79.814 22.2082 82.6086 31.7643 82.6086C62.8808 82.6086 79.979 56.8668 79.979 34.5493C79.979 33.8014 79.979 33.0929 79.9395 32.3451C83.2565 29.9835 86.0996 26.9921 88.3899 23.5677Z" fill="#FCFCFC"/>
</svg>
